<?xml version="1.0" encoding="UTF-8" standalone="no"?>
<!-- Created with Inkscape (http://www.inkscape.org/) -->

<svg
   width="512"
   height="512"
   viewBox="0 0 512 512"
   version="1.1"
   id="svg1"
   xml:space="preserve"
   inkscape:version="1.4.3 (0d15f75, 2025-12-25)"
   sodipodi:docname="unauthorised.svg"
   xmlns:inkscape="http://www.inkscape.org/namespaces/inkscape"
   xmlns:sodipodi="http://sodipodi.sourceforge.net/DTD/sodipodi-0.dtd"
   xmlns="http://www.w3.org/2000/svg"
   xmlns:svg="http://www.w3.org/2000/svg"><sodipodi:namedview
     id="namedview1"
     pagecolor="#505050"
     bordercolor="#ffffff"
     borderopacity="1"
     inkscape:showpageshadow="0"
     inkscape:pageopacity="0"
     inkscape:pagecheckerboard="1"
     inkscape:deskcolor="#505050"
     inkscape:document-units="px"
     inkscape:zoom="1"
     inkscape:cx="157.5"
     inkscape:cy="312.5"
     inkscape:window-width="2560"
     inkscape:window-height="1382"
     inkscape:window-x="0"
     inkscape:window-y="30"
     inkscape:window-maximized="1"
     inkscape:current-layer="layer1" /><defs
     id="defs1" /><g
     inkscape:label="Layer 1"
     inkscape:groupmode="layer"
     id="layer1"><g
       fill="currentColor"
       id="g2"
       transform="matrix(18.474189,0,0,18.474189,34.309732,34.309732)"
       style="fill:#ffd300;fill-opacity:0.976471"><path
         d="m 5,20 h 14 v 2 H 5 Z m 4,-4 h 2 v 4 H 9 Z m 4,0 h 2 v 4 H 13 Z M 5,14 h 2 v 6 H 5 Z m 12,0 h 2 v 6 h -2 z"
         id="path1"
         style="fill:#ffd300;fill-opacity:0.976471" /><path
         d="m 3,14 h 4 v 2 H 3 Z M 1,2 H 3 V 16 H 1 Z m 20,0 h 2 V 16 H 21 Z M 3,2 H 21 V 4 H 3 Z m 14,12 h 4 v 2 H 17 Z M 8,7 h 2 v 4 H 8 Z m 6,0 h 2 v 4 h -2 z"
         id="path2"
         style="fill:#ffd300;fill-opacity:0.976471" /></g></g></svg>
