<?xml version="1.0" encoding="UTF-8" standalone="no"?>
<!-- Generator: visioncortex VTracer 0.6.5 -->

<svg
   version="1.1"
   width="512"
   height="512"
   id="svg85"
   sodipodi:docname="icon.svg"
   inkscape:version="1.4.3 (0d15f75, 2025-12-25)"
   xmlns:inkscape="http://www.inkscape.org/namespaces/inkscape"
   xmlns:sodipodi="http://sodipodi.sourceforge.net/DTD/sodipodi-0.dtd"
   xmlns="http://www.w3.org/2000/svg"
   xmlns:svg="http://www.w3.org/2000/svg">
  <defs
     id="defs85" />
  <sodipodi:namedview
     id="namedview85"
     pagecolor="#505050"
     bordercolor="#ffffff"
     borderopacity="1"
     inkscape:showpageshadow="0"
     inkscape:pageopacity="0"
     inkscape:pagecheckerboard="1"
     inkscape:deskcolor="#505050"
     inkscape:zoom="1.625"
     inkscape:cx="303.69231"
     inkscape:cy="223.69231"
     inkscape:window-width="1800"
     inkscape:window-height="1102"
     inkscape:window-x="0"
     inkscape:window-y="39"
     inkscape:window-maximized="1"
     inkscape:current-layer="svg85" />
  <path
     d="M0 0 C168.96 0 337.92 0 512 0 C512 168.96 512 337.92 512 512 C343.04 512 174.08 512 0 512 C0 343.04 0 174.08 0 0 Z "
     fill="#A15433"
     transform="translate(0,0)"
     id="path1" />
  <path
     d="M0 0 C168.96 0 337.92 0 512 0 C512 168.96 512 337.92 512 512 C504.74 512 497.48 512 490 512 C489.18 508.4 488.37 504.79 487.56 501.19 C487.45 500.69 487.45 500.69 486.87 498.14 C485.38 491.44 484.45 484.86 484 478 C481.36 478 478.72 478 476 478 C473.89 469.88 472.06 461.73 470.44 453.5 C470.21 452.34 469.98 451.19 469.74 450 C469.01 446.33 468.29 442.67 467.56 439 C467.08 436.57 466.6 434.15 466.12 431.72 C465.18 427.02 464.25 422.31 463.31 417.6 C462.47 413.37 461.62 409.13 460.76 404.9 C460.57 403.97 460.38 403.04 460.19 402.08 C459.84 400.37 459.49 398.66 459.14 396.95 C458.52 393.91 458 391.11 458 388 C452.06 388 446.12 388 440 388 C440 380.74 440 373.48 440 366 C426.8 366 413.6 366 400 366 C400 329.04 400 292.08 400 254 C403.63 254 407.26 254 411 254 C411 241.46 411 228.92 411 216 C414.63 216 418.26 216 422 216 C422 200.82 422 185.64 422 170 C414.41 170 406.82 170 399 170 C399 141.62 399 113.24 399 84 C392.07 84 385.14 84 378 84 C378 76.08 378 68.16 378 60 C349.29 59.66 320.59 59.39 291.88 59.23 C288.48 59.22 285.09 59.2 281.69 59.18 C281.01 59.17 280.33 59.17 279.64 59.16 C268.72 59.1 257.81 58.98 246.89 58.84 C235.67 58.7 224.45 58.62 213.22 58.59 C206.93 58.57 200.63 58.52 194.34 58.41 C188.4 58.31 182.46 58.28 176.52 58.3 C174.36 58.3 172.19 58.27 170.03 58.21 C153.59 57.79 144.41 62.2 132.17 73.09 C129.38 75.54 126.49 77.84 123.57 80.13 C121.26 81.95 118.97 83.8 116.73 85.7 C115 87 115 87 112.96 87.97 C110.31 89.38 108.81 90.59 107 93 C105.78 98.72 105.93 104.38 106 110.21 C105.99 111.91 105.98 113.6 105.97 115.3 C105.94 119.75 105.96 124.19 105.99 128.64 C106.01 133.19 105.98 137.73 105.96 142.28 C105.93 151.19 105.95 160.09 106 169 C104.35 169 102.7 169 101 169 C101 176.59 101 184.18 101 192 C95.06 192 89.12 192 83 192 C83 213.12 83 234.24 83 256 C90.26 256 97.52 256 105 256 C105 285.7 105 315.4 105 346 C115.89 346 126.78 346 138 346 C138 352.93 138 359.86 138 367 C109.29 367 80.58 367 51 367 C51 372.28 51 377.56 51 383 C46.71 383 42.42 383 38 383 C37.89 384.23 37.77 385.45 37.65 386.72 C36.98 392.72 35.78 398.59 34.56 404.5 C34.35 405.58 34.13 406.65 33.9 407.76 C32.83 413.07 31.7 418.37 30.52 423.65 C29.13 429.94 27.82 436.23 26.49 442.53 C26.12 444.26 25.75 446 25.38 447.73 C24.85 450.26 24.31 452.79 23.78 455.32 C23.7 455.7 23.7 455.7 23.28 457.64 C22.35 462.08 21.59 466.5 21 471 C18.69 471 16.38 471 14 471 C13.9 471.62 13.8 472.25 13.7 472.89 C12.57 479.86 11.31 486.81 10 493.75 C9.83 494.64 9.67 495.52 9.5 496.44 C8.5 501.68 7.34 506.84 6 512 C4.02 512 2.04 512 0 512 C0 343.04 0 174.08 0 0 Z "
     fill="#FED200"
     transform="translate(0,0)"
     id="path2"
     style="fill:#ffd300;fill-opacity:1" />
  <path
     d="M0 0 C28.38 0 56.76 0 86 0 C86 6.93 86 13.86 86 21 C92.27 21 98.54 21 105 21 C109.02 39.52 112.88 58.06 116.58 76.64 C117.26 80.03 117.94 83.42 118.62 86.82 C119.28 90.1 119.93 93.38 120.59 96.66 C120.71 97.27 120.71 97.27 121.32 100.34 C121.55 101.45 121.77 102.57 121.99 103.71 C122.09 104.2 122.09 104.2 122.58 106.67 C123 109 123 109 123 111 C125.64 111 128.28 111 131 111 C131.86 115.04 132.72 119.08 133.56 123.12 C133.85 124.49 134.14 125.86 134.44 127.23 C134.86 129.21 135.27 131.19 135.69 133.17 C135.94 134.36 136.19 135.55 136.45 136.77 C137 140 137 140 137 145 C-22.72 145 -182.44 145 -347 145 C-346.34 139.74 -345.62 134.69 -344.62 129.51 C-344.5 128.84 -344.37 128.16 -344.23 127.47 C-343.96 126.07 -343.69 124.66 -343.42 123.26 C-343 121.11 -342.58 118.96 -342.17 116.8 C-341.91 115.43 -341.64 114.07 -341.38 112.7 C-341.26 112.08 -341.26 112.08 -340.65 108.95 C-340 106 -340 106 -339 104 C-336.69 104 -334.38 104 -332 104 C-332.03 103.01 -332.06 102.02 -332.1 101.01 C-332.09 96.86 -331.33 92.95 -330.43 88.92 C-330.26 88.15 -330.1 87.39 -329.93 86.6 C-329.58 84.97 -329.22 83.34 -328.87 81.72 C-327.93 77.44 -327.01 73.16 -326.1 68.88 C-325.92 68.03 -325.73 67.18 -325.54 66.3 C-324.01 59.11 -322.6 51.91 -321.25 44.69 C-319.44 35.05 -317.37 25.51 -315 16 C-310.38 16 -305.76 16 -301 16 C-301 11.05 -301 6.1 -301 1 C-262.39 1 -223.78 1 -184 1 C-184 8.59 -184 16.18 -184 24 C-175.42 24 -166.84 24 -158 24 C-158 31.59 -158 39.18 -158 47 C-151.07 47 -144.14 47 -137 47 C-137 54.26 -137 61.52 -137 69 C-129.74 69 -122.48 69 -115 69 C-115 75.93 -115 82.86 -115 90 C-100.48 90 -85.96 90 -71 90 C-71 82.74 -71 75.48 -71 68 C-63.74 68 -56.48 68 -49 68 C-49 61.07 -49 54.14 -49 47 C-41.74 47 -34.48 47 -27 47 C-27 39.08 -27 31.16 -27 23 C-18.09 23 -9.18 23 0 23 C0 15.41 0 7.82 0 0 Z "
     fill="#211E1C"
     transform="translate(353,367)"
     id="path3" />
  <path
     d="M0 0 C0.44 -0 0.44 -0 2.66 -0.01 C3.62 -0.01 4.59 -0 5.58 0 C6.09 0 6.09 0 8.68 -0 C12.11 -0.01 15.54 0.01 18.97 0.02 C21.42 0.02 23.86 0.02 26.31 0.02 C32.24 0.02 38.17 0.03 44.1 0.04 C48.9 0.06 53.7 0.07 58.5 0.07 C113.57 0.13 168.65 0.6 223.72 1.25 C223.72 9.17 223.72 17.09 223.72 25.25 C230.65 25.25 237.58 25.25 244.72 25.25 C244.72 53.63 244.72 82.01 244.72 111.25 C212.38 111.25 180.04 111.25 146.72 111.25 C146.72 118.84 146.72 126.43 146.72 134.25 C132.53 134.25 118.34 134.25 103.72 134.25 C103.72 126.33 103.72 118.41 103.72 110.25 C53.56 110.25 3.4 110.25 -48.28 110.25 C-48.28 85.17 -48.28 60.09 -48.28 34.25 C-35.91 24.13 -35.91 24.13 -31.15 20.5 C-30.63 20.1 -30.12 19.7 -29.58 19.29 C-28.44 18.43 -27.31 17.56 -26.17 16.69 C-24.04 15.06 -21.91 13.43 -19.78 11.79 C-18.24 10.61 -16.7 9.43 -15.15 8.25 C-14.42 7.68 -13.68 7.12 -12.93 6.54 C-12.24 6.01 -11.55 5.48 -10.83 4.93 C-10.22 4.46 -9.61 3.99 -8.97 3.51 C-5.77 1.12 -3.97 -0 0 0 Z "
     fill="#DC9258"
     transform="translate(154.27906799316406,58.75276184082031)"
     id="path4" />
  <path
     d="M0 0 C50.16 0 100.32 0 152 0 C152 7.26 152 14.52 152 22 C167.18 22 182.36 22 198 22 C198 44.44 198 66.88 198 90 C182.82 90 167.64 90 152 90 C152 97.59 152 105.18 152 113 C102.17 113 52.34 113 1 113 C1 105.74 1 98.48 1 91 C-7.58 91 -16.16 91 -25 91 C-25 83.41 -25 75.82 -25 68 C-33.25 68 -41.5 68 -50 68 C-50 53.15 -50 38.3 -50 23 C-43.31 22.33 -36.95 21.86 -30.27 21.9 C-29.4 21.9 -28.53 21.91 -27.63 21.91 C-24.88 21.91 -22.13 21.92 -19.38 21.94 C-17.49 21.94 -15.61 21.95 -13.73 21.95 C-9.15 21.96 -4.58 21.98 0 22 C0 14.74 0 7.48 0 0 Z "
     fill="#81644D"
     transform="translate(201,277)"
     id="path5" />
  <path
     d="M0 0 C1.28 -0 2.57 -0 3.89 -0 C5.31 -0 6.73 0 8.16 0.01 C9.65 0.01 11.15 0.01 12.65 0.01 C16.72 0.01 20.78 0.01 24.85 0.02 C29.1 0.03 33.35 0.03 37.6 0.03 C45.64 0.03 53.69 0.04 61.73 0.05 C70.9 0.06 80.06 0.06 89.22 0.07 C108.06 0.08 126.9 0.1 145.75 0.12 C145.75 8.04 145.75 15.96 145.75 24.12 C159.94 24.12 174.13 24.12 188.75 24.12 C188.75 16.53 188.75 8.94 188.75 1.12 C228.68 1.12 268.61 1.12 309.75 1.12 C309.75 16.3 309.75 31.48 309.75 47.12 C306.12 47.12 302.49 47.12 298.75 47.12 C298.75 59.66 298.75 72.2 298.75 85.12 C294.79 85.12 290.83 85.12 286.75 85.12 C286.75 89.41 286.75 93.7 286.75 98.12 C259.03 98.12 231.31 98.12 202.75 98.12 C202.75 93.83 202.75 89.54 202.75 85.12 C207.37 85.12 211.99 85.12 216.75 85.12 C216.75 65.32 216.75 45.52 216.75 25.12 C210.48 25.12 204.21 25.12 197.75 25.12 C197.75 37.99 197.75 50.86 197.75 64.12 C194.45 64.12 191.15 64.12 187.75 64.12 C187.75 56.53 187.75 48.94 187.75 41.12 C173.89 41.12 160.03 41.12 145.75 41.12 C145.75 55.64 145.75 70.16 145.75 85.12 C142.78 85.12 139.81 85.12 136.75 85.12 C136.75 89.41 136.75 93.7 136.75 98.12 C106.72 98.12 76.69 98.12 45.75 98.12 C45.75 93.83 45.75 89.54 45.75 85.12 C40.14 85.12 34.53 85.12 28.75 85.12 C28.75 72.58 28.75 60.04 28.75 47.12 C24.46 47.12 20.17 47.12 15.75 47.12 C15.75 39.53 15.75 31.94 15.75 24.12 C7.17 24.12 -1.41 24.12 -10.25 24.12 C-10.25 16.53 -10.25 8.94 -10.25 1.12 C-6.55 0.2 -3.78 -0 0 0 Z "
     fill="#26221E"
     transform="translate(112.25152587890625,168.87974548339844)"
     id="path6" />
  <path
     d="M0 0 C9.79 -0.03 19.58 -0.05 29.38 -0.06 C29.76 -0.06 29.76 -0.06 31.69 -0.07 C64.3 -0.1 96.9 0.18 129.5 0.5 C130.71 0.51 131.91 0.52 133.15 0.54 C148.1 0.69 163.05 0.84 178 1 C178 31.36 178 61.72 178 93 C169.75 93 161.5 93 153 93 C153 85.41 153 77.82 153 70 C102.84 70 52.68 70 1 70 C1 77.59 1 85.18 1 93 C-0.23 93.01 -0.23 93.01 -6.44 93.06 C-7.19 93.07 -7.94 93.08 -8.72 93.09 C-13.96 93.11 -18.7 92.59 -24 92 C-24 69.56 -24 47.12 -24 24 C-15.75 24 -7.5 24 1 24 C0.84 20.04 0.84 20.04 0 0 Z "
     fill="#DF965B"
     transform="translate(200,59)"
     id="path7" />
  <path
     d="M0 0 C6.27 0 12.54 0 19 0 C19 19.8 19 39.6 19 60 C14.38 60 9.76 60 5 60 C5 64.29 5 68.58 5 73 C32.72 73 60.44 73 89 73 C89 68.71 89 64.42 89 60 C89.33 60 89.66 60 90 60 C90 96.96 90 133.92 90 172 C103.2 172 116.4 172 130 172 C130 179.26 130 186.52 130 194 C129.67 194 129.34 194 129 194 C129 187.07 129 180.14 129 173 C115.8 173 102.6 173 89 173 C89 150.56 89 128.12 89 105 C73.82 105 58.64 105 43 105 C43 97.74 43 90.48 43 83 C-7.16 83 -57.32 83 -109 83 C-109 90.26 -109 97.52 -109 105 C-125.5 105 -142 105 -159 105 C-159 90.48 -159 75.96 -159 61 C-156.69 61 -154.38 61 -152 61 C-152 64.96 -152 68.92 -152 73 C-121.97 73 -91.94 73 -61 73 C-61 68.71 -61 64.42 -61 60 C-58.03 60 -55.06 60 -52 60 C-52 45.48 -52 30.96 -52 16 C-38.14 16 -24.28 16 -10 16 C-10 23.59 -10 31.18 -10 39 C-6.7 39 -3.4 39 0 39 C0 26.13 0 13.26 0 0 Z "
     fill="#9D5133"
     transform="translate(310,194)"
     id="path8" />
  <path
     d="M0 0 C1.65 0 3.3 0 5 0 C3.68 0.33 2.36 0.66 1 1 C1 8.59 1 16.18 1 24 C9.58 24 18.16 24 27 24 C27 31.59 27 39.18 27 47 C31.29 47 35.58 47 40 47 C40 59.54 40 72.08 40 85 C45.61 85 51.22 85 57 85 C57 85.33 57 85.66 57 86 C54.69 86 52.38 86 50 86 C50 93.26 50 100.52 50 108 C42.08 108 34.16 108 26 108 C26 130.44 26 152.88 26 176 C29.63 176 33.26 176 37 176 C37 176.33 37 176.66 37 177 C26.11 177 15.22 177 4 177 C4 147.3 4 117.6 4 87 C-3.26 87 -10.52 87 -18 87 C-18 65.88 -18 44.76 -18 23 C-12.06 23 -6.12 23 0 23 C0 15.41 0 7.82 0 0 Z "
     fill="#A75D37"
     transform="translate(101,169)"
     id="path9" />
  <path
     d="M0 0 C7.26 0 14.52 0 22 0 C22 28.05 22 56.1 22 85 C6.49 85 -9.02 85 -25 85 C-25 79.39 -25 73.78 -25 68 C-74.83 68 -124.66 68 -176 68 C-176 60.41 -176 52.82 -176 45 C-125.84 45 -75.68 45 -24 45 C-24 52.59 -24 60.18 -24 68 C-15.75 68 -7.5 68 1 68 C0.93 65.94 0.86 63.88 0.78 61.76 C0.09 41.16 -0.12 20.6 0 0 Z "
     fill="#D08250"
     transform="translate(377,84)"
     id="path10" />
  <path
     d="M0 0 C29.7 0 59.4 0 90 0 C90 20.13 90 40.26 90 61 C60.3 61 30.6 61 0 61 C0 40.87 0 20.74 0 0 Z "
     fill="#373D25"
     transform="translate(158,193)"
     id="path11" />
  <path
     d="M0 0 C8.25 0 16.5 0 25 0 C25 7.59 25 15.18 25 23 C41.83 23 58.66 23 76 23 C76 15.41 76 7.82 76 0 C84.25 0 92.5 0 101 0 C101.63 6.34 102.14 12.32 102.1 18.63 C102.1 19.4 102.09 20.16 102.09 20.94 C102.09 23.34 102.08 25.73 102.06 28.12 C102.06 29.77 102.05 31.41 102.05 33.05 C102.04 37.03 102.02 41.02 102 45 C93.42 45 84.84 45 76 45 C76 52.59 76 60.18 76 68 C59.17 68 42.34 68 25 68 C25 60.74 25 53.48 25 46 C16.75 46 8.5 46 0 46 C0 30.82 0 15.64 0 0 Z "
     fill="#927259"
     transform="translate(227,322)"
     id="path12" />
  <path
     d="M0 0 C0.78 0 1.55 0 2.35 0 C5.2 0.01 8.05 0.02 10.9 0.04 C14.1 0.05 14.1 0.05 30.27 0.1 C30.27 15.28 30.27 30.46 30.27 46.1 C38.85 46.1 47.43 46.1 56.27 46.1 C56.27 53.69 56.27 61.28 56.27 69.1 C64.52 69.1 72.77 69.1 81.27 69.1 C81.27 76.36 81.27 83.62 81.27 91.1 C64.77 91.1 48.27 91.1 31.27 91.1 C31.27 83.84 31.27 76.58 31.27 69.1 C22.69 69.1 14.11 69.1 5.27 69.1 C5.27 61.51 5.27 53.92 5.27 46.1 C-2.98 46.1 -11.23 46.1 -19.73 46.1 C-19.73 31.25 -19.73 16.4 -19.73 1.1 C-13.03 0.43 -6.68 -0.04 0 0 Z "
     fill="#80644D"
     transform="translate(170.7265625,298.90234375)"
     id="path13" />
  <path
     d="M0 0 C0 36.3 0 72.6 0 110 C-14.85 110 -29.7 110 -45 110 C-45.44 91.39 -45.44 91.39 -45.54 83.42 C-45.6 78 -45.68 72.57 -45.83 67.15 C-45.95 62.77 -46.02 58.4 -46.04 54.02 C-46.06 52.35 -46.1 50.69 -46.16 49.03 C-46.61 36 -46.61 36 -42.59 31.01 C-39.83 28.73 -37.07 26.84 -34 25 C-32.88 24.15 -31.77 23.28 -30.68 22.39 C-29.75 21.68 -28.83 20.98 -27.88 20.25 C-27.36 19.85 -26.84 19.46 -26.3 19.05 C-25.16 18.18 -24.03 17.31 -22.89 16.44 C-20.76 14.81 -18.63 13.18 -16.5 11.55 C-14.96 10.36 -13.42 9.18 -11.88 8 C-11.14 7.44 -10.41 6.87 -9.65 6.29 C-8.96 5.76 -8.27 5.23 -7.55 4.69 C-6.94 4.22 -6.33 3.75 -5.69 3.26 C-1.31 0 -1.31 0 0 0 Z "
     fill="#AB6139"
     transform="translate(151,59)"
     id="path14" />
  <path
     d="M0 0 C16.17 0 32.34 0 49 0 C50 1 50 1 50.11 3.22 C50.11 4.18 50.1 5.14 50.1 6.13 C50.1 7.06 50.09 7.99 50.09 8.95 C50.08 10.14 50.07 11.33 50.06 12.56 C50.04 16.34 50.02 20.11 50 24 C41.75 24 33.5 24 25 24 C25 46.44 25 68.88 25 92 C31.6 92 38.2 92 45 92 C46.65 92.33 48.3 92.66 50 93 C50 98.28 50 103.56 50 109 C33.83 109 17.66 109 1 109 C0.84 91.01 0.84 91.01 0 0 Z "
     fill="#D08350"
     transform="translate(151,59)"
     id="path15" />
  <path
     d="M0 0 C33.66 0 67.32 0 102 0 C102 7.26 102 14.52 102 22 C101 23 101 23 98.59 23.11 C97.55 23.11 96.51 23.1 95.43 23.1 C94.31 23.09 93.18 23.09 92.03 23.09 C90.84 23.08 89.66 23.07 88.44 23.06 C87.25 23.06 86.06 23.05 84.84 23.05 C81.89 23.04 78.95 23.02 76 23 C76 30.59 76 38.18 76 46 C59.17 46 42.34 46 25 46 C25 38.41 25 30.82 25 23 C16.75 23 8.5 23 0 23 C0 15.41 0 7.82 0 0 Z "
     fill="#AD5134"
     transform="translate(227,299)"
     id="path16" />
  <path
     d="M0 0 C33.66 0 67.32 0 102 0 C102 7.26 102 14.52 102 22 C76.92 22 51.84 22 26 22 C26 37.18 26 52.36 26 68 C17.42 68 8.84 68 0 68 C0 45.56 0 23.12 0 0 Z "
     fill="#6B4C36"
     transform="translate(201,277)"
     id="path17" />
  <path
     d="M0 0 C7.92 0 15.84 0 24 0 C24 7.26 24 14.52 24 22 C27.3 22 30.6 22 34 22 C34 22.33 34 22.66 34 23 C30.7 23 27.4 23 24 23 C24 37.85 24 52.7 24 68 C32.25 68 40.5 68 49 68 C49 75.59 49 83.18 49 91 C57.58 91 66.16 91 75 91 C75 98.26 75 105.52 75 113 C70.27 113.68 66.31 114.12 61.63 114.1 C60.48 114.09 59.33 114.09 58.14 114.09 C56.96 114.08 55.78 114.07 54.56 114.06 C53.35 114.06 52.15 114.05 50.9 114.05 C47.93 114.04 44.97 114.02 42 114 C42 106.41 42 98.82 42 91 C3.39 91 -35.22 91 -75 91 C-75 95.95 -75 100.9 -75 106 C-75.33 106 -75.66 106 -76 106 C-76 100.72 -76 95.44 -76 90 C-47.29 90 -18.58 90 11 90 C11 82.74 11 75.48 11 68 C7.37 68 3.74 68 0 68 C0 45.56 0 23.12 0 0 Z "
     fill="#644E30"
     transform="translate(127,277)"
     id="path18" />
  <path
     d="M0 0 C15.18 0 30.36 0 46 0 C46 19.8 46 39.6 46 60 C30.82 60 15.64 60 0 60 C0 40.2 0 20.4 0 0 Z "
     fill="#D0834F"
     transform="translate(353,194)"
     id="path19" />
  <path
     d="M0 0 C14.19 0 28.38 0 43 0 C43 20.13 43 40.26 43 61 C28.81 61 14.62 61 0 61 C0 40.87 0 20.74 0 0 Z "
     fill="#D28651"
     transform="translate(158,193)"
     id="path20" />
  <path
     d="M0 0 C21.78 0 43.56 0 66 0 C66 6.93 66 13.86 66 21 C58.74 21 51.48 21 44 21 C44 28.26 44 35.52 44 43 C29.48 43 14.96 43 0 43 C0 28.81 0 14.62 0 0 Z "
     fill="#B1643C"
     transform="translate(238,414)"
     id="path21" />
  <path
     d="M0 0 C16.83 0 33.66 0 51 0 C51 7.59 51 15.18 51 23 C59.25 23 67.5 23 76 23 C76 30.26 76 37.52 76 45 C59.5 45 43 45 26 45 C26 37.74 26 30.48 26 23 C17.42 23 8.84 23 0 23 C0 15.41 0 7.82 0 0 Z "
     fill="#82654E"
     transform="translate(176,345)"
     id="path22" />
  <path
     d="M0 0 C6.27 0 12.54 0 19 0 C19 19.8 19 39.6 19 60 C1.18 60 -16.64 60 -35 60 C-35 53.07 -35 46.14 -35 39 C-27.08 39 -19.16 39 -11 39 C-11 31.74 -11 24.48 -11 17 C-24.2 17 -37.4 17 -51 17 C-51 31.19 -51 45.38 -51 60 C-51.33 60 -51.66 60 -52 60 C-52 45.48 -52 30.96 -52 16 C-38.14 16 -24.28 16 -10 16 C-10 23.59 -10 31.18 -10 39 C-6.7 39 -3.4 39 0 39 C0 26.13 0 13.26 0 0 Z "
     fill="#D28852"
     transform="translate(310,194)"
     id="path23" />
  <path
     d="M0 0 C2.31 0 4.62 0 7 0 C7 4.29 7 8.58 7 13 C29.77 13 52.54 13 76 13 C76 15.97 76 18.94 76 22 C67.42 22 58.84 22 50 22 C50 29.26 50 36.52 50 44 C33.5 44 17 44 0 44 C0 29.48 0 14.96 0 0 Z "
     fill="#C07246"
     transform="translate(151,255)"
     id="path24" />
  <path
     d="M0 0 C0.33 0 0.66 0 1 0 C1 36.96 1 73.92 1 112 C14.2 112 27.4 112 41 112 C41 119.26 41 126.52 41 134 C40.67 134 40.34 134 40 134 C40 127.07 40 120.14 40 113 C26.8 113 13.6 113 0 113 C0 90.56 0 68.12 0 45 C-15.18 45 -30.36 45 -46 45 C-46 37.74 -46 30.48 -46 23 C-54.25 23 -62.5 23 -71 23 C-70 15 -70 15 -69 14 C-66.85 13.91 -64.7 13.88 -62.55 13.89 C-62.22 13.89 -62.22 13.89 -60.51 13.89 C-58.28 13.89 -56.04 13.89 -53.81 13.9 C-52.26 13.9 -50.72 13.91 -49.17 13.91 C-45.1 13.91 -41.02 13.92 -36.95 13.93 C-32.79 13.94 -28.63 13.95 -24.48 13.95 C-16.32 13.96 -8.16 13.98 0 14 C0 9.38 0 4.76 0 0 Z "
     fill="#C47C40"
     transform="translate(399,254)"
     id="path25" />
  <path
     d="M0 0 C0.66 0.33 1.32 0.66 2 1 C1.67 1.66 1.34 2.32 1 3 C0.91 5.78 0.87 8.53 0.89 11.31 C0.89 12.16 0.89 13.02 0.89 13.91 C0.89 16.75 0.89 19.6 0.9 22.45 C0.9 24.42 0.91 26.39 0.91 28.36 C0.91 33.55 0.92 38.74 0.93 43.93 C0.94 49.23 0.95 54.52 0.95 59.82 C0.96 70.21 0.98 80.61 1 91 C-5.6 91 -12.2 91 -19 91 C-19.32 81.28 -19.57 71.57 -19.73 61.84 C-19.8 57.33 -19.9 52.81 -20.06 48.3 C-20.21 43.94 -20.29 39.58 -20.33 35.21 C-20.35 33.55 -20.4 31.89 -20.48 30.24 C-21.04 17.64 -21.04 17.64 -17.64 13.24 C-14.34 10 -10.64 7.48 -6.7 5.08 C-4.32 3.57 -2.16 1.81 0 0 Z "
     fill="#9E5534"
     transform="translate(126,77)"
     id="path26" />
  <path
     d="M0 0 C7.92 0 15.84 0 24 0 C24 7.26 24 14.52 24 22 C27.3 22 30.6 22 34 22 C34 22.33 34 22.66 34 23 C30.7 23 27.4 23 24 23 C24 37.85 24 52.7 24 68 C16.08 68 8.16 68 0 68 C0 45.56 0 23.12 0 0 Z "
     fill="#705642"
     transform="translate(127,277)"
     id="path27" />
  <path
     d="M0 0 C1.23 -0 2.46 -0.01 3.72 -0.01 C6.94 0.12 6.94 0.12 9.94 1.12 C9.94 20.93 9.94 40.72 9.94 61.12 C17.86 61.12 25.78 61.12 33.94 61.12 C33.94 61.45 33.94 61.78 33.94 62.12 C26.02 62.12 18.1 62.12 9.94 62.12 C9.94 84.56 9.94 107 9.94 130.12 C9.61 130.12 9.28 130.12 8.94 130.12 C8.94 107.69 8.94 85.25 8.94 62.12 C2.34 62.12 -4.26 62.12 -11.06 62.12 C-11.06 42 -11.06 21.87 -11.06 1.12 C-7.15 0.15 -4.01 -0.01 0 0 Z "
     fill="#9B5334"
     transform="translate(117.0625,214.875)"
     id="path28" />
  <path
     d="M0 0 C6.6 0 13.2 0 20 0 C20 22.44 20 44.88 20 68 C13.4 68 6.8 68 0 68 C0 45.56 0 23.12 0 0 Z "
     fill="#A05634"
     transform="translate(106,277)"
     id="path29" />
  <path
     d="M0 0 C6.93 0 13.86 0 21 0 C21 20.13 21 40.26 21 61 C14.07 61 7.14 61 0 61 C0 40.87 0 20.74 0 0 Z "
     fill="#D58B54"
     transform="translate(227,193)"
     id="path30" />
  <path
     d="M0 0 C16.83 0 33.66 0 51 0 C51 7.59 51 15.18 51 23 C34.17 23 17.34 23 0 23 C0 15.41 0 7.82 0 0 Z "
     fill="#BC6B3E"
     transform="translate(252,322)"
     id="path31" />
  <path
     d="M0 0 C8.25 0 16.5 0 25 0 C25 14.19 25 28.38 25 43 C31.6 43 38.2 43 45 43 C45 28.81 45 14.62 45 0 C45.33 0 45.66 0 46 0 C46 14.52 46 29.04 46 44 C30.82 44 15.64 44 0 44 C0 29.48 0 14.96 0 0 Z "
     fill="#D79057"
     transform="translate(353,210)"
     id="path32" />
  <path
     d="M0 0 C8.25 0 16.5 0 25 0 C25 14.85 25 29.7 25 45 C16.82 46.64 8.34 46 0 46 C0 30.82 0 15.64 0 0 Z "
     fill="#97765B"
     transform="translate(227,322)"
     id="path33" />
  <path
     d="M0 0 C16.5 0 33 0 50 0 C50 7.26 50 14.52 50 22 C33.5 22 17 22 0 22 C0 14.74 0 7.48 0 0 Z "
     fill="#84674F"
     transform="translate(202,368)"
     id="path34" />
  <path
     d="M0 0 C13.2 0 26.4 0 40 0 C40 4.29 40 8.58 40 13 C67.72 13 95.44 13 124 13 C124 13.33 124 13.66 124 14 C101.23 14.33 78.46 14.66 55 15 C54.67 17.31 54.34 19.62 54 22 C36.18 22 18.36 22 0 22 C0 14.74 0 7.48 0 0 Z "
     fill="#B35D3A"
     transform="translate(275,254)"
     id="path35" />
  <path
     d="M0 0 C15.84 0 31.68 0 48 0 C48 7.59 48 15.18 48 23 C31.97 23.11 16.02 22.68 0 22 C0 14.74 0 7.48 0 0 Z "
     fill="#CF8350"
     transform="translate(329,61)"
     id="path36" />
  <path
     d="M0 0 C0.85 0.05 1.7 0.1 2.57 0.15 C3.45 0.2 4.33 0.26 5.24 0.32 C6.13 0.37 7.02 0.42 7.94 0.47 C10.15 0.6 12.35 0.74 14.55 0.88 C15.44 28.68 15.68 56.46 15.62 84.28 C15.61 89.45 15.6 94.62 15.6 99.79 C15.59 109.82 15.57 119.85 15.55 129.88 C26.11 129.88 36.67 129.88 47.55 129.88 C47.55 130.21 47.55 130.54 47.55 130.88 C36.66 130.88 25.77 130.88 14.55 130.88 C14.55 101.18 14.55 71.48 14.55 40.88 C7.29 40.88 0.03 40.88 -7.45 40.88 C-7.45 27.68 -7.45 14.48 -7.45 0.88 C-4.52 -0.1 -3.01 -0.18 0 0 Z "
     fill="#BF753F"
     transform="translate(90.44921875,215.12109375)"
     id="path37" />
  <path
     d="M0 0 C15.18 0 30.36 0 46 0 C46 7.26 46 14.52 46 22 C30.63 22.11 15.35 21.71 0 21 C0 14.07 0 7.14 0 0 Z "
     fill="#725944"
     transform="translate(353,345)"
     id="path38" />
  <path
     d="M0 0 C13.86 0 27.72 0 42 0 C42 7.59 42 15.18 42 23 C46.95 23 51.9 23 57 23 C57.03 26.13 57.05 29.25 57.06 32.38 C57.07 33.26 57.08 34.15 57.09 35.07 C57.09 35.92 57.09 36.77 57.1 37.65 C57.1 38.43 57.11 39.22 57.11 40.03 C57 42 57 42 56 44 C43.13 44 30.26 44 17 44 C17 37.07 17 30.14 17 23 C24.92 23 32.84 23 41 23 C41 15.74 41 8.48 41 1 C27.8 1 14.6 1 1 1 C1 15.19 1 29.38 1 44 C0.67 44 0.34 44 0 44 C0 29.48 0 14.96 0 0 Z "
     fill="#CE7445"
     transform="translate(258,210)"
     id="path39" />
  <path
     d="M0 0 C13.86 0 27.72 0 42 0 C42 7.26 42 14.52 42 22 C27.81 22 13.62 22 -1 22 C-1 9 -1 9 0 0 Z "
     fill="#C07343"
     transform="translate(240,435)"
     id="path40" />
  <path
     d="M0 0 C13.53 0 27.06 0 41 0 C41 6.27 41 12.54 41 19 C27.47 19 13.94 19 0 19 C0 12.73 0 6.46 0 0 Z "
     fill="#CB7F4E"
     transform="translate(259,173)"
     id="path41" />
  <path
     d="M0 0 C0.33 0 0.66 0 1 0 C1 12.54 1 25.08 1 38 C6.61 38 12.22 38 18 38 C18 38.33 18 38.66 18 39 C15.69 39 13.38 39 11 39 C11 45.93 11 52.86 11 60 C3.08 60 -4.84 60 -13 60 C-13 47.79 -13 35.58 -13 23 C-8.71 23 -4.42 23 0 23 C0 15.41 0 7.82 0 0 Z "
     fill="#AF623C"
     transform="translate(140,216)"
     id="path42" />
  <path
     d="M0 0 C15.18 0 30.36 0 46 0 C46 5.28 46 10.56 46 16 C30.82 16 15.64 16 0 16 C0 10.72 0 5.44 0 0 Z "
     fill="#B37644"
     transform="translate(353,194)"
     id="path43" />
  <path
     d="M0 0 C14.19 0 28.38 0 43 0 C43 5.28 43 10.56 43 16 C28.81 16 14.62 16 0 16 C0 10.72 0 5.44 0 0 Z "
     fill="#B67946"
     transform="translate(158,193)"
     id="path44" />
  <path
     d="M0 0 C8.25 0 16.5 0 25 0 C25 14.85 25 29.7 25 45 C11.14 45 -2.72 45 -17 45 C-17 44.67 -17 44.34 -17 44 C-3.47 44 10.06 44 24 44 C24 37.4 24 30.8 24 24 C16.08 24 8.16 24 0 24 C0 16.08 0 8.16 0 0 Z "
     fill="#DEA468"
     transform="translate(176,209)"
     id="path45" />
  <path
     d="M0 0 C8.58 0 17.16 0 26 0 C26 7.26 26 14.52 26 22 C21.27 22.68 17.31 23.12 12.63 23.1 C11.48 23.09 10.33 23.09 9.14 23.09 C7.96 23.08 6.78 23.07 5.56 23.06 C4.35 23.06 3.15 23.05 1.9 23.05 C-1.07 23.04 -4.03 23.02 -7 23 C-7 22.67 -7 22.34 -7 22 C-4.69 22 -2.38 22 0 22 C0 14.74 0 7.48 0 0 Z "
     fill="#5E4938"
     transform="translate(176,368)"
     id="path46" />
  <path
     d="M0 0 C8.58 0 17.16 0 26 0 C26 7.59 26 15.18 26 23 C17.42 23 8.84 23 0 23 C0 15.41 0 7.82 0 0 Z "
     fill="#AC8564"
     transform="translate(277,367)"
     id="path47" />
  <path
     d="M0 0 C8.58 0 17.16 0 26 0 C26 7.59 26 15.18 26 23 C17.42 23 8.84 23 0 23 C0 15.41 0 7.82 0 0 Z "
     fill="#735945"
     transform="translate(201,322)"
     id="path48" />
  <path
     d="M0 0 C8.58 0 17.16 0 26 0 C26 7.59 26 15.18 26 23 C17.42 23 8.84 23 0 23 C0 15.41 0 7.82 0 0 Z "
     fill="#694C36"
     transform="translate(201,299)"
     id="path49" />
  <path
     d="M0 0 C8.58 0 17.16 0 26 0 C26 7.59 26 15.18 26 23 C17.75 23 9.5 23 1 23 C0.67 15.41 0.34 7.82 0 0 Z "
     fill="#907158"
     transform="translate(201,345)"
     id="path50" />
  <path
     d="M0 0 C8.25 0 16.5 0 25 0 C25 7.59 25 15.18 25 23 C16.75 23 8.5 23 0 23 C0 15.41 0 7.82 0 0 Z "
     fill="#A48164"
     transform="translate(176,322)"
     id="path51" />
  <path
     d="M0 0 C8.58 0 17.16 0 26 0 C26 7.26 26 14.52 26 22 C17.42 22 8.84 22 0 22 C0 14.74 0 7.48 0 0 Z "
     fill="#AD8867"
     transform="translate(303,345)"
     id="path52" />
  <path
     d="M0 0 C8.58 0 17.16 0 26 0 C26 7.26 26 14.52 26 22 C17.42 22 8.84 22 0 22 C0 14.74 0 7.48 0 0 Z "
     fill="#644530"
     transform="translate(277,277)"
     id="path53" />
  <path
     d="M0 0 C8.58 0 17.16 0 26 0 C26 7.26 26 14.52 26 22 C17.42 22 8.84 22 0 22 C0 14.74 0 7.48 0 0 Z "
     fill="#86674F"
     transform="translate(201,277)"
     id="path54" />
  <path
     d="M0 0 C8.25 0 16.5 0 25 0 C25 7.59 25 15.18 25 23 C16.75 23 8.5 23 0 23 C0 15.41 0 7.82 0 0 Z "
     fill="#D38751"
     transform="translate(176,276)"
     id="path55" />
  <path
     d="M0 0 C8.25 0 16.5 0 25 0 C25 7.26 25 14.52 25 22 C21.37 22.73 18.72 23.12 15.14 23.1 C14.34 23.1 13.54 23.09 12.71 23.09 C11.72 23.08 10.72 23.07 9.69 23.06 C8.09 23.05 8.09 23.05 0 23 C0 15.41 0 7.82 0 0 Z "
     fill="#AA8565"
     transform="translate(227,345)"
     id="path56" />
  <path
     d="M0 0 C0.46 0 0.46 0 2.81 0.01 C3.41 0.01 3.41 0.01 6.4 0.04 C8.28 0.05 8.28 0.05 17.77 0.1 C17.77 7.69 17.77 15.28 17.77 23.1 C9.52 23.1 1.27 23.1 -7.23 23.1 C-7.23 15.84 -7.23 8.58 -7.23 1.1 C-4.67 -0.18 -2.86 -0.02 0 0 Z "
     fill="#CF834F"
     transform="translate(360.2265625,275.90234375)"
     id="path57" />
  <path
     d="M0 0 C8.42 -0.08 16.63 0.08 25 1 C25.03 4.48 25.05 7.96 25.06 11.44 C25.07 12.43 25.08 13.42 25.09 14.45 C25.09 14.92 25.09 14.92 25.1 17.31 C25.1 17.75 25.1 17.75 25.11 19.96 C25 22 25 22 24 23 C22.22 23.09 20.44 23.11 18.65 23.1 C17.57 23.09 16.49 23.09 15.38 23.09 C14.24 23.08 13.11 23.07 11.94 23.06 C10.8 23.06 9.66 23.05 8.48 23.05 C5.65 23.04 2.83 23.02 0 23 C0 15.41 0 7.82 0 0 Z "
     fill="#92735A"
     transform="translate(353,299)"
     id="path58" />
  <path
     d="M0 0 C8.25 0 16.5 0 25 0 C25 7.59 25 15.18 25 23 C16.75 23 8.5 23 0 23 C0 15.41 0 7.82 0 0 Z "
     fill="#6C533F"
     transform="translate(328,367)"
     id="path59" />
  <path
     d="M0 0 C7.92 0 15.84 0 24 0 C24 6.93 24 13.86 24 21 C32.25 21 40.5 21 49 21 C49 21.33 49 21.66 49 22 C32.83 22 16.66 22 0 22 C0 14.74 0 7.48 0 0 Z "
     fill="#8B6E56"
     transform="translate(329,345)"
     id="path60" />
  <path
     d="M0 0 C7.92 0 15.84 0 24 0 C24 7.59 24 15.18 24 23 C16.08 23 8.16 23 0 23 C0 15.41 0 7.82 0 0 Z "
     fill="#5C4636"
     transform="translate(127,322)"
     id="path61" />
  <path
     d="M0 0 C8.58 0 17.16 0 26 0 C26 7.26 26 14.52 26 22 C17.42 22 8.84 22 0 22 C0 14.74 0 7.48 0 0 Z "
     fill="#785941"
     transform="translate(303,277)"
     id="path62" />
  <path
     d="M0 0 C8.25 0 16.5 0 25 0 C25 7.26 25 14.52 25 22 C16.75 22 8.5 22 0 22 C0 14.74 0 7.48 0 0 Z "
     fill="#8E6F56"
     transform="translate(176,300)"
     id="path63" />
  <path
     d="M0 0 C8.25 0 16.5 0 25 0 C25 7.26 25 14.52 25 22 C16.75 22 8.5 22 0 22 C0 14.74 0 7.48 0 0 Z "
     fill="#72553E"
     transform="translate(227,277)"
     id="path64" />
  <path
     d="M0 0 C8.25 0 16.5 0 25 0 C25 7.26 25 14.52 25 22 C16.75 22 8.5 22 0 22 C0 14.74 0 7.48 0 0 Z "
     fill="#755A45"
     transform="translate(202,368)"
     id="path65" />
  <path
     d="M0 0 C1 0.01 2 0.01 3.03 0.02 C4.11 0.02 5.19 0.02 6.3 0.03 C6.87 0.03 6.87 0.03 9.75 0.05 C10.32 0.05 10.32 0.05 13.2 0.06 C16.03 0.08 18.86 0.09 21.68 0.11 C21.68 7.37 21.68 14.63 21.68 22.11 C17.7 22.14 13.73 22.16 9.75 22.18 C9.18 22.18 9.18 22.18 6.3 22.2 C5.22 22.2 4.14 22.21 3.03 22.21 C2.53 22.21 2.53 22.21 0 22.23 C-2.32 22.11 -2.32 22.11 -3.32 21.11 C-3.42 19.64 -3.45 18.16 -3.45 16.68 C-3.45 15.78 -3.45 14.89 -3.45 13.97 C-3.45 13.49 -3.45 13.49 -3.44 11.11 C-3.45 10.17 -3.45 9.23 -3.45 8.26 C-3.45 7.37 -3.45 6.47 -3.45 5.55 C-3.45 5.14 -3.45 5.14 -3.45 3.05 C-3.25 0.18 -2.87 0.14 0 0 Z "
     fill="#876850"
     transform="translate(331.316650390625,276.886474609375)"
     id="path66" />
  <path
     d="M0 0 C7.92 0 15.84 0 24 0 C24 7.59 24 15.18 24 23 C15.37 22.94 15.37 22.94 12.69 22.91 C8.35 22.89 4.28 23.12 0 24 C-1.27 21.45 -1.03 19.84 -0.88 16.99 C-0.84 16.1 -0.79 15.22 -0.75 14.3 C-0.72 13.74 -0.72 13.74 -0.56 10.88 C-0.38 7.29 -0.19 3.7 0 0 Z "
     fill="#6A4E38"
     transform="translate(329,299)"
     id="path67" />
  <path
     d="M0 0 C7.59 0 15.18 0 23 0 C23 7.59 23 15.18 23 23 C15.41 23 7.82 23 0 23 C0 15.41 0 7.82 0 0 Z "
     fill="#DB9F65"
     transform="translate(354,210)"
     id="path68" />
  <path
     d="M0 0 C7.59 0 15.18 0 23 0 C23 7.59 23 15.18 23 23 C15.41 23 7.82 23 0 23 C0 15.41 0 7.82 0 0 Z "
     fill="#202123"
     transform="translate(203,209)"
     id="path69" />
  <path
     d="M0 0 C7.92 0 15.84 0 24 0 C24 7.26 24 14.52 24 22 C16.08 22 8.16 22 0 22 C0 14.74 0 7.48 0 0 Z "
     fill="#624835"
     transform="translate(127,277)"
     id="path70" />
  <path
     d="M0 0 C7.92 0 15.84 0 24 0 C24 7.26 24 14.52 24 22 C16.08 22 8.16 22 0 22 C0 14.74 0 7.48 0 0 Z "
     fill="#B1613C"
     transform="translate(275,211)"
     id="path71" />
  <path
     d="M0 0 C1.23 -0 2.46 -0.01 3.72 -0.01 C6.94 0.12 6.94 0.12 9.94 1.12 C9.94 8.72 9.94 16.31 9.94 24.12 C3.01 24.12 -3.92 24.12 -11.06 24.12 C-11.06 16.53 -11.06 8.94 -11.06 1.12 C-7.15 0.15 -4.01 -0.01 0 0 Z "
     fill="#8A442B"
     transform="translate(117.0625,214.875)"
     id="path72" />
  <path
     d="M0 0 C7.26 0 14.52 0 22 0 C22 7.26 22 14.52 22 22 C14.74 22 7.48 22 0 22 C0 14.74 0 7.48 0 0 Z "
     fill="#2D3B23"
     transform="translate(330,232)"
     id="path73" />
  <path
     d="M0 0 C6.93 0 13.86 0 21 0 C21.74 3.68 22.11 5.87 21.88 9.43 C21.86 9.78 21.86 9.78 21.75 11.6 C21.69 12.5 21.63 13.39 21.56 14.31 C21.38 17.18 21.19 20.05 21 23 C14.4 23 7.8 23 1 23 C0.67 15.41 0.34 7.82 0 0 Z "
     fill="#964A2E"
     transform="translate(195,390)"
     id="path74" />
  <path
     d="M0 0 C6.93 0 13.86 0 21 0 C21 7.26 21 14.52 21 22 C14.07 22 7.14 22 0 22 C0 14.74 0 7.48 0 0 Z "
     fill="#664F3D"
     transform="translate(378,345)"
     id="path75" />
  <path
     d="M0 0 C6.6 0 13.2 0 20 0 C20 7.26 20 14.52 20 22 C13.4 22 6.8 22 0 22 C0 14.74 0 7.48 0 0 Z "
     fill="#AE633B"
     transform="translate(106,277)"
     id="path76" />
  <path
     d="M0 0 C2.64 0 5.28 0 8 0 C8 6.93 8 13.86 8 21 C-1.9 21 -11.8 21 -22 21 C-22 18.36 -22 15.72 -22 13 C-44.77 13 -67.54 13 -91 13 C-91 12.67 -91 12.34 -91 12 C-60.97 12 -30.94 12 0 12 C0 8.04 0 4.08 0 0 Z "
     fill="#A7603B"
     transform="translate(249,255)"
     id="path77" />
  <path
     d="M0 0 C8.25 0 16.5 0 25 0 C24.67 5.28 24.34 10.56 24 16 C16.41 16 8.82 16 1 16 C1 23.59 1 31.18 1 39 C0.67 39 0.34 39 0 39 C0 26.13 0 13.26 0 0 Z "
     fill="#2A3721"
     transform="translate(202,193)"
     id="path78" />
  <path
     d="M0 0 C7.26 0 14.52 0 22 0 C22 5.28 22 10.56 22 16 C14.74 16 7.48 16 0 16 C0 10.72 0 5.44 0 0 Z "
     fill="#2B3821"
     transform="translate(330,194)"
     id="path79" />
  <path
     d="M0 0 C6.93 0 13.86 0 21 0 C21 5.28 21 10.56 21 16 C14.07 16 7.14 16 0 16 C0 10.72 0 5.44 0 0 Z "
     fill="#AD643D"
     transform="translate(227,193)"
     id="path80" />
  <path
     d="M0 0 C6.6 0 13.2 0 20 0 C20 4.95 20 9.9 20 15 C13.73 15 7.46 15 1 15 C-1.76 9.48 -0.72 6.08 0 0 Z "
     fill="#AD623B"
     transform="translate(378,195)"
     id="path81" />
  <path
     d="M0 0 C5.94 0 11.88 0 18 0 C18 4.62 18 9.24 18 14 C25.92 14 33.84 14 42 14 C42 14.33 42 14.66 42 15 C28.14 15 14.28 15 0 15 C0 10.05 0 5.1 0 0 Z "
     fill="#AA613B"
     transform="translate(158,194)"
     id="path82" />
  <path
     d="M0 0 C4.29 0 8.58 0 13 0 C13 7.26 13 14.52 13 22 C8.71 22 4.42 22 0 22 C0 14.74 0 7.48 0 0 Z "
     fill="#9E5130"
     transform="translate(138,345)"
     id="path83" />
  <path
     d="M0 0 C6.27 0 12.54 0 19 0 C19 5.28 19 10.56 19 16 C12.73 15.67 6.46 15.34 0 15 C0 10.05 0 5.1 0 0 Z "
     fill="#AF643D"
     transform="translate(310,194)"
     id="path84" />
  <path
     d="M0 0 C2.31 0 4.62 0 7 0 C7 7.59 7 15.18 7 23 C4.69 23 2.38 23 0 23 C0 15.41 0 7.82 0 0 Z "
     fill="#A15131"
     transform="translate(169,367)"
     id="path85" />
</svg>
